<svg fill="none" stroke-linecap="square" stroke-miterlimit="10" viewBox="0 0 629.3 578.4" xmlns="http://www.w3.org/2000/svg" xmlns:xlink="http://www.w3.org/1999/xlink"><clipPath id="a"><path d="m0 0h629.3v578.4h-629.3z"/></clipPath><g clip-path="url(#a)"><path d="m0 0h629.3v578.4h-629.3z" fill="none"/><path d="m4.4 4.6h622v570.1h-622z" fill="#fff" fill-rule="evenodd"/><path d="m40.3 10.9h576v135.8h-576z" fill="none"/><path d="m40.3 10.9h576v135.8h-576z" fill-rule="evenodd" stroke="#000" stroke-linecap="butt" stroke-linejoin="round" stroke-width="3"/><path d="m521.5 46.5h85.7v42h-85.7z" fill="none"/><path d="m533.7 73.4-3.1-9.7h2.5l1.8 6.3 1.7-6.3h2.5l1.6 6.3 1.9-6.3h2.5l-3.1 9.7h-2.5l-1.7-6.2-1.6 6.2zm12.5.6 2.9.4q.1.5.3.7.4.3 1.2.3 1 0 1.5-.3.3-.2.5-.7.1-.3.1-1.2v-1.4q-1.1 1.6-2.9 1.6-2 0-3.1-1.7-.9-1.3-.9-3.2 0-2.4 1.2-3.7 1.2-1.3 2.9-1.3 1.8 0 3 1.6v-1.4h2.4v8.7q0 1.7-.3 2.6-.3.8-.8 1.3-.5.5-1.4.8-.8.3-2.2.3-2.5 0-3.5-.8-1-.8-1-2.1 0-.1 0-.3zm2.3-5.7q0 1.5.6 2.3.6.7 1.5.7.9 0 1.6-.7.7-.7.7-2.2 0-1.5-.6-2.2-.6-.7-1.6-.7-.9 0-1.5.7-.6.7-.6 2.2zm8.4 2.3 2.6-.4q.2.8.7 1.1.5.4 1.4.4 1 0 1.5-.4.3-.3.3-.7 0-.3-.2-.5-.2-.2-.9-.3-3.1-.7-3.9-1.3-1.1-.8-1.1-2.2 0-1.3 1-2.1 1-.9 3.1-.9 2 0 3 .7 1 .6 1.3 1.9l-2.4.4q-.2-.6-.6-.9-.4-.3-1.2-.3-1 0-1.4.3-.3.2-.3.5 0 .3.3.5.3.3 2.4.7 2 .5 2.9 1.1.8.7.8 1.9 0 1.3-1.1 2.3-1.1 1-3.3 1-2 0-3.1-.8-1.1-.8-1.5-2.2zm11.3 2.8v-13.4h2.6v13.4zm5.2-11v-2.4h2.6v2.4zm0 11v-9.7h2.6v9.7zm7.6 0h-2.6v-9.7h2.4v1.4q.6-1 1.1-1.3.5-.3 1.1-.3.9 0 1.7.5l-.8 2.2q-.6-.4-1.2-.4-.5 0-.9.3-.4.3-.6 1.1-.2.8-.2 3.2zm4.7-9.7h2.4v1.4q.5-.7 1.3-1.2.8-.5 1.8-.5 1.7 0 2.9 1.3 1.2 1.3 1.2 3.7 0 2.4-1.2 3.8-1.2 1.3-2.9 1.3-.8 0-1.5-.3-.6-.3-1.4-1.1v4.9h-2.6v-13.4zm2.5 4.7q0 1.6.6 2.4.7.8 1.6.8.9 0 1.5-.7.6-.7.6-2.3 0-1.5-.6-2.3-.6-.8-1.5-.8-.9 0-1.6.7-.6.7-.6 2.1z" fill="#000"/><path d="m40.3 230.5h576v88.9h-576z" fill="none"/><path d="m40.3 230.5h576v88.9h-576z" fill-rule="evenodd" stroke="#000" stroke-dasharray="4 3" stroke-linecap="butt" stroke-linejoin="round"/><path d="m459.1 253.9h167.3v42h-167.3z" fill="none"/><path d="m468.7 276q0-2.7 1.5-4 1.3-1.1 3-1.1 2 0 3.3 1.3 1.3 1.3 1.3 3.6 0 1.9-.6 2.9-.6 1.1-1.6 1.7-1.1.6-2.3.6-2 0-3.3-1.3-1.3-1.3-1.3-3.8zm1.7 0q0 1.9.8 2.8.8.9 2 .9 1.2 0 2-.9.8-.9.8-2.8 0-1.8-.8-2.7-.8-.9-2-.9-1.2 0-2 .9-.8.9-.8 2.8zm9.3 8.5v-13.4h1.5v1.3q.5-.7 1.2-1.1.7-.4 1.6-.4 1.2 0 2.2.6 1 .6 1.4 1.8.5 1.2.5 2.5 0 1.5-.5 2.7-.5 1.2-1.5 1.8-1 .6-2.1.6-.8 0-1.5-.3-.7-.3-1.1-.9v4.7h-1.6zm1.5-8.5q0 1.9.8 2.8.8.9 1.8.9 1.1 0 1.9-.9.8-.9.8-2.9 0-1.8-.8-2.8-.8-.9-1.8-.9-1 0-1.9 1-.8 1-.8 2.8zm15.5 1.7 1.7.2q-.4 1.5-1.5 2.3-1.1.8-2.8.8-2.1 0-3.4-1.3-1.2-1.3-1.2-3.7 0-2.5 1.3-3.8 1.3-1.3 3.3-1.3 1.9 0 3.2 1.3 1.2 1.3 1.2 3.7 0 .2 0 .4h-7.2q.1 1.6.9 2.5.8.8 2 .8.9 0 1.5-.5.6-.5 1-1.5zm-5.4-2.7h5.4q-.1-1.2-.6-1.8-.8-1-2-1-1.1 0-1.9.8-.8.8-.8 2zm9.1 5.8v-9.7h1.5v1.5q.6-1 1-1.4.5-.3 1.1-.3.8 0 1.7.5l-.6 1.5q-.6-.4-1.2-.4-.5 0-1 .3-.4.3-.6.9-.3.9-.3 1.9v5.1h-1.6zm12.5-1.2q-.9.8-1.8 1.1-.8.3-1.8.3-1.6 0-2.5-.8-.9-.8-.9-2 0-.7.3-1.3.3-.6.8-.9.5-.4 1.2-.5.5-.1 1.5-.3 2-.2 2.9-.6 0-.3 0-.4 0-1-.5-1.4-.6-.5-1.9-.5-1.2 0-1.7.4-.5.4-.8 1.4l-1.6-.2q.2-1 .7-1.6.5-.6 1.5-1 1-.3 2.2-.3 1.2 0 2 .3.8.3 1.1.7.4.4.5 1.1.1.4.1 1.5v2.2q0 2.3.1 2.9.1.6.4 1.2h-1.7q-.3-.5-.3-1.2zm-.1-3.7q-.9.4-2.7.6-1 .1-1.4.3-.4.2-.7.5-.2.3-.2.8 0 .7.5 1.1.5.4 1.5.4.9 0 1.7-.4.7-.4 1.1-1.1.3-.6.3-1.6v-.6zm7.8 3.4.2 1.5q-.7.1-1.2.1-.9 0-1.4-.3-.5-.3-.7-.7-.2-.5-.2-1.9v-5.6h-1.2v-1.3h1.2v-2.4l1.6-1v3.4h1.7v1.3h-1.7v5.7q0 .7.1.9.1.2.3.3.2.1.6.1.3 0 .7-.1zm1.6-10v-1.9h1.6v1.9zm0 11.5v-9.7h1.6v9.7zm4.1 0v-9.7h1.5v1.4q1.1-1.6 3.1-1.6.9 0 1.6.3.7.3 1.1.8.4.5.5 1.2.1.5.1 1.6v6h-1.6v-5.9q0-1-.2-1.5-.2-.5-.7-.8-.5-.3-1.1-.3-1 0-1.8.7-.8.7-.8 2.5v5.3h-1.6zm10.1.8 1.6.2q.1.8.6 1.1.6.5 1.7.5 1.1 0 1.8-.5.6-.5.8-1.3.1-.5.1-2.1-1.1 1.3-2.7 1.3-2 0-3.1-1.4-1.1-1.4-1.1-3.5 0-1.4.5-2.6.5-1.2 1.5-1.8 1-.6 2.3-.6 1.7 0 2.8 1.4v-1.2h1.5v8.4q0 2.3-.5 3.2-.5.9-1.5 1.5-1 .5-2.5.5-1.7 0-2.8-.8-1.1-.8-1-2.3zm1.4-5.8q0 1.9.8 2.8.8.9 1.9.9 1.1 0 1.9-.9.8-.9.8-2.7 0-1.8-.8-2.7-.8-.9-1.9-.9-1.1 0-1.9.9-.8.9-.8 2.6zm13.9 2.1 1.6-.3q.1 1 .8 1.5.6.5 1.8.5 1.1 0 1.7-.5.5-.5.5-1.1 0-.5-.5-.9-.3-.2-1.7-.5-1.8-.5-2.5-.8-.7-.3-1-.9-.4-.6-.4-1.3 0-.6.3-1.2.3-.6.8-.9.4-.3 1-.5.7-.2 1.4-.2 1.1 0 2 .3.9.3 1.3.9.4.6.6 1.5l-1.6.2q-.1-.8-.6-1.2-.5-.4-1.5-.4-1.1 0-1.6.4-.5.4-.5.9 0 .3.2.6.2.3.6.4.2.1 1.4.4 1.8.5 2.4.8.7.3 1.1.9.4.6.4 1.4 0 .8-.5 1.5-.5.7-1.4 1.1-.9.4-2 .4-1.9 0-2.9-.8-1-.8-1.3-2.3zm9.9 6.6-.2-1.5q.5.1.9.1.5 0 .9-.2.3-.2.5-.5.2-.3.5-1.2 0-.1.1-.4l-3.7-9.7h1.8l2 5.6q.4 1.1.7 2.3.3-1.1.7-2.2l2.1-5.6h1.6l-3.7 9.8q-.6 1.6-.9 2.2-.4.8-1 1.2-.6.4-1.3.4-.5 0-1.1-.2zm8.8-6.6 1.6-.3q.1 1 .8 1.5.6.5 1.8.5 1.1 0 1.7-.5.5-.5.5-1.1 0-.5-.5-.9-.3-.2-1.7-.5-1.8-.5-2.5-.8-.7-.3-1-.9-.4-.6-.4-1.3 0-.6.3-1.2.3-.6.8-.9.4-.3 1-.5.7-.2 1.4-.2 1.1 0 2 .3.9.3 1.3.9.4.6.6 1.5l-1.6.2q-.1-.8-.6-1.2-.5-.4-1.5-.4-1.1 0-1.6.4-.5.4-.5.9 0 .3.2.6.2.3.6.4.2.1 1.4.4 1.8.5 2.4.8.7.3 1.1.9.4.6.4 1.4 0 .8-.5 1.5-.5.7-1.4 1.1-.9.4-2 .4-1.9 0-2.9-.8-1-.8-1.3-2.3zm13.6 1.4.2 1.5q-.7.1-1.2.1-.9 0-1.4-.3-.5-.3-.7-.7-.2-.5-.2-1.9v-5.6h-1.2v-1.3h1.2v-2.4l1.6-1v3.4h1.7v1.3h-1.7v5.7q0 .7.1.9.1.2.3.3.2.1.6.1.3 0 .7-.1zm8.2-1.6 1.7.2q-.4 1.5-1.5 2.3-1.1.8-2.8.8-2.1 0-3.4-1.3-1.2-1.3-1.2-3.7 0-2.5 1.3-3.8 1.3-1.3 3.3-1.3 1.9 0 3.2 1.3 1.2 1.3 1.2 3.7 0 .2 0 .4h-7.2q.1 1.6.9 2.5.8.8 2 .8.9 0 1.5-.5.6-.5 1-1.5zm-5.4-2.7h5.4q-.1-1.2-.6-1.8-.8-1-2-1-1.1 0-1.9.8-.8.8-.8 2zm9.1 5.8v-9.7h1.5v1.4q.5-.7 1.2-1.1.8-.4 1.7-.4 1.1 0 1.8.5.7.4 1 1.2 1.2-1.7 3-1.7 1.5 0 2.2.8.8.8.8 2.5v6.6h-1.6v-6.1q0-1-.2-1.4-.2-.4-.6-.7-.4-.3-1-.3-1 0-1.7.7-.7.7-.7 2.2v5.6h-1.6v-6.3q0-1.1-.4-1.6-.4-.5-1.3-.5-.7 0-1.3.4-.6.4-.9 1.1-.3.7-.3 2v5h-1.6z" fill="#999"/><path d="m40.3 343h576v220.8h-576z" fill="none"/><path d="m40.3 343h576v220.8h-576z" fill-rule="evenodd" stroke="#000" stroke-dasharray="4 3" stroke-linecap="butt" stroke-linejoin="round"/><path d="m247.2 509.2h91.8v42h-91.8z" fill="none"/><path d="m257.5 536.2v-9.7h1.5v1.4q1.1-1.6 3.1-1.6.9 0 1.6.3.7.3 1.1.8.4.5.5 1.2.1.5.1 1.6v6h-1.6v-5.9q0-1-.2-1.5-.2-.5-.7-.8-.5-.3-1.1-.3-1 0-1.8.7-.8.7-.8 2.5v5.3h-1.6zm17-3.1 1.7.2q-.4 1.5-1.5 2.3-1.1.8-2.8.8-2.1 0-3.4-1.3-1.2-1.3-1.2-3.7 0-2.5 1.3-3.8 1.3-1.3 3.3-1.3 1.9 0 3.2 1.3 1.2 1.3 1.2 3.7 0 .2 0 .4h-7.2q.1 1.6.9 2.5.8.8 2 .8.9 0 1.5-.5.6-.5 1-1.5zm-5.4-2.7h5.4q-.1-1.2-.6-1.8-.8-1-2-1-1.1 0-1.9.8-.8.8-.8 2zm12.7 4.3.2 1.5q-.7.1-1.2.1-.9 0-1.4-.3-.5-.3-.7-.7-.2-.5-.2-1.9v-5.6h-1.2v-1.3h1.2v-2.4l1.6-1v3.4h1.7v1.3h-1.7v5.7q0 .7.1.9.1.2.3.3.2.1.6.1.3 0 .7-.1zm3.4 1.5-3-9.7h1.7l1.5 5.6.6 2.1q0-.2.5-2l1.5-5.7h1.7l1.4 5.6.5 1.8.6-1.9 1.7-5.6h1.6l-3 9.7h-1.7l-1.5-5.8-.4-1.6-2 7.4h-1.7zm11.1-4.8q0-2.7 1.5-4 1.3-1.1 3-1.1 2 0 3.3 1.3 1.3 1.3 1.3 3.6 0 1.9-.6 2.9-.6 1.1-1.6 1.7-1.1.6-2.3.6-2 0-3.3-1.3-1.3-1.3-1.3-3.8zm1.7 0q0 1.9.8 2.8.8.9 2 .9 1.2 0 2-.9.8-.9.8-2.8 0-1.8-.8-2.7-.8-.9-2-.9-1.2 0-2 .9-.8.9-.8 2.8zm9.3 4.8v-9.7h1.5v1.5q.6-1 1-1.4.5-.3 1.1-.3.8 0 1.7.5l-.6 1.5q-.6-.4-1.2-.4-.5 0-1 .3-.4.3-.6.9-.3.9-.3 1.9v5.1h-1.6zm6.2 0v-13.4h1.6v7.6l3.9-3.9h2.1l-3.7 3.6 4.1 6.1h-2l-3.2-5-1.2 1.1v3.8h-1.6z" fill="#999"/><path d="m83.1 146.6c0-7.9 6.4-14.3 14.3-14.3h57.1c3.8 0 7.4 1.5 10.1 4.2s4.2 6.3 4.2 10.1v93.1c0 7.9-6.4 14.3-14.3 14.3h-57.1c-7.9 0-14.3-6.4-14.3-14.3z" fill="none"/><path d="m83.1 146.6c0-7.9 6.4-14.3 14.3-14.3h57.1c3.8 0 7.4 1.5 10.1 4.2s4.2 6.3 4.2 10.1v93.1c0 7.9-6.4 14.3-14.3 14.3h-57.1c-7.9 0-14.3-6.4-14.3-14.3z" fill-rule="evenodd" stroke="#000" stroke-linecap="butt" stroke-linejoin="round"/><path d="m106.5 175.7h1.8v7.7q0 2-.5 3.2-.5 1.2-1.6 1.9-1.2.7-3.1.7-1.9 0-3.1-.6-1.2-.7-1.7-1.9-.5-1.2-.5-3.4v-7.7h1.8v7.7q0 1.7.3 2.6.3.8 1.1 1.3.8.5 1.9.5 2 0 2.8-.9.8-.9.8-3.4zm4.7 13.4v-13.4h4.6q1.5 0 2.4.2 1.1.3 2 1 1.1.9 1.6 2.3.5 1.4.5 3.2 0 1.5-.4 2.7-.4 1.2-.9 1.9-.5.8-1.2 1.2-.7.4-1.6.7-.9.2-2.1.2h-4.8zm1.8-1.6h2.9q1.3 0 2.1-.2.8-.3 1.2-.7.6-.6 1-1.7.4-1.1.4-2.6 0-2.1-.7-3.2-.7-1.1-1.7-1.5-.7-.3-2.3-.3h-2.8v10.2zm11.7 1.6v-13.4h5q1.3 0 2 .1 1 .2 1.6.6.7.5 1.1 1.3.4.8.4 1.8 0 1.7-1.1 2.9-1.1 1.2-3.9 1.2h-3.4v5.4h-1.8zm1.8-7h3.5q1.7 0 2.4-.6.7-.6.7-1.8 0-.8-.4-1.4-.4-.6-1.1-.8-.4-.1-1.6-.1h-3.4v4.8z" fill="#000"/><path d="m96.9 208.2 1.6-.3q.1 1 .8 1.5.6.5 1.8.5 1.1 0 1.7-.5.5-.5.5-1.1 0-.5-.5-.9-.3-.2-1.7-.5-1.8-.5-2.5-.8-.7-.3-1-.9-.4-.6-.4-1.3 0-.6.3-1.2.3-.6.8-.9.4-.3 1-.5.7-.2 1.4-.2 1.1 0 2 .3.9.3 1.3.9.4.6.6 1.5l-1.6.2q-.1-.8-.6-1.2-.5-.4-1.5-.4-1.1 0-1.6.4-.5.4-.5.9 0 .3.2.6.2.3.6.4.2.1 1.4.4 1.8.5 2.4.8.7.3 1.1.9.4.6.4 1.4 0 .8-.5 1.5-.5.7-1.4 1.1-.9.4-2 .4-1.9 0-2.9-.8-1-.8-1.3-2.3zm9.4-2q0-2.7 1.5-4 1.3-1.1 3-1.1 2 0 3.3 1.3 1.3 1.3 1.3 3.6 0 1.9-.6 2.9-.6 1.1-1.6 1.7-1.1.6-2.3.6-2 0-3.3-1.3-1.3-1.3-1.3-3.8zm1.7 0q0 1.9.8 2.8.8.9 2 .9 1.2 0 2-.9.8-.9.8-2.8 0-1.8-.8-2.7-.8-.9-2-.9-1.2 0-2 .9-.8.9-.8 2.8zm15.6 1.3 1.6.2q-.3 1.7-1.4 2.6-1.1.9-2.7.9-2 0-3.2-1.3-1.2-1.3-1.2-3.7 0-1.6.5-2.8.5-1.2 1.6-1.8 1.1-.6 2.3-.6 1.6 0 2.6.8 1 .8 1.3 2.3l-1.6.2q-.2-1-.8-1.5-.6-.5-1.4-.5-1.2 0-2 .9-.8.9-.8 2.8 0 2 .8 2.8.8.9 2 .9 1 0 1.6-.6.7-.6.8-1.8zm3 3.5v-13.4h1.6v7.6l3.9-3.9h2.1l-3.7 3.6 4.1 6.1h-2l-3.2-5-1.2 1.1v3.8h-1.6zm16-3.1 1.7.2q-.4 1.5-1.5 2.3-1.1.8-2.8.8-2.1 0-3.4-1.3-1.2-1.3-1.2-3.7 0-2.5 1.3-3.8 1.3-1.3 3.3-1.3 1.9 0 3.2 1.3 1.2 1.3 1.2 3.7 0 .2 0 .4h-7.2q.1 1.6.9 2.5.8.8 2 .8.9 0 1.5-.5.6-.5 1-1.5zm-5.4-2.7h5.4q-.1-1.2-.6-1.8-.8-1-2-1-1.1 0-1.9.8-.8.8-.8 2zm12.7 4.3.2 1.5q-.7.1-1.2.1-.9 0-1.4-.3-.5-.3-.7-.7-.2-.5-.2-1.9v-5.6h-1.2v-1.3h1.2v-2.4l1.6-1v3.4h1.7v1.3h-1.7v5.7q0 .7.1.9.1.2.3.3.2.1.6.1.3 0 .7-.1z" fill="#000"/><path d="m297.9 146.6c0-7.9 6.4-14.3 14.3-14.3h57.1c3.8 0 7.4 1.5 10.1 4.2s4.2 6.3 4.2 10.1v93.1c0 7.9-6.4 14.3-14.3 14.3h-57.1c-7.9 0-14.3-6.4-14.3-14.3z" fill="none"/><path d="m297.9 146.6c0-7.9 6.4-14.3 14.3-14.3h57.1c3.8 0 7.4 1.5 10.1 4.2s4.2 6.3 4.2 10.1v93.1c0 7.9-6.4 14.3-14.3 14.3h-57.1c-7.9 0-14.3-6.4-14.3-14.3z" fill-rule="evenodd" stroke="#000" stroke-linecap="butt" stroke-linejoin="round"/><path d="m321.3 175.7h1.8v7.7q0 2-.5 3.2-.5 1.2-1.6 1.9-1.2.7-3.1.7-1.9 0-3.1-.6-1.2-.7-1.7-1.9-.5-1.2-.5-3.4v-7.7h1.8v7.7q0 1.7.3 2.6.3.8 1.1 1.3.8.5 1.9.5 2 0 2.8-.9.8-.9.8-3.4zm4.7 13.4v-13.4h4.6q1.5 0 2.4.2 1.1.3 2 1 1.1.9 1.6 2.3.5 1.4.5 3.2 0 1.5-.4 2.7-.4 1.2-.9 1.9-.5.8-1.2 1.2-.7.4-1.6.7-.9.2-2.1.2h-4.8zm1.8-1.6h2.9q1.3 0 2.1-.2.8-.3 1.2-.7.6-.6 1-1.7.4-1.1.4-2.6 0-2.1-.7-3.2-.7-1.1-1.7-1.5-.7-.3-2.3-.3h-2.8v10.2zm11.7 1.6v-13.4h5q1.3 0 2 .1 1 .2 1.6.6.7.5 1.1 1.3.4.8.4 1.8 0 1.7-1.1 2.9-1.1 1.2-3.9 1.2h-3.4v5.4h-1.8zm1.8-7h3.5q1.7 0 2.4-.6.7-.6.7-1.8 0-.8-.4-1.4-.4-.6-1.1-.8-.4-.1-1.6-.1h-3.4v4.8z" fill="#000"/><path d="m311.7 208.2 1.6-.3q.1 1 .8 1.5.6.5 1.8.5 1.1 0 1.7-.5.5-.5.5-1.1 0-.5-.5-.9-.3-.2-1.7-.5-1.8-.5-2.5-.8-.7-.3-1-.9-.4-.6-.4-1.3 0-.6.3-1.2.3-.6.8-.9.4-.3 1-.5.7-.2 1.4-.2 1.1 0 2 .3.9.3 1.3.9.4.6.6 1.5l-1.6.2q-.1-.8-.6-1.2-.5-.4-1.5-.4-1.1 0-1.6.4-.5.4-.5.9 0 .3.2.6.2.3.6.4.2.1 1.4.4 1.8.5 2.4.8.7.3 1.1.9.4.6.4 1.4 0 .8-.5 1.5-.5.7-1.4 1.1-.9.4-2 .4-1.9 0-2.9-.8-1-.8-1.3-2.3zm9.4-2q0-2.7 1.5-4 1.3-1.1 3-1.1 2 0 3.3 1.3 1.3 1.3 1.3 3.6 0 1.9-.6 2.9-.6 1.1-1.6 1.7-1.1.6-2.3.6-2 0-3.3-1.3-1.3-1.3-1.3-3.8zm1.7 0q0 1.9.8 2.8.8.9 2 .9 1.2 0 2-.9.8-.9.8-2.8 0-1.8-.8-2.7-.8-.9-2-.9-1.2 0-2 .9-.8.9-.8 2.8zm15.6 1.3 1.6.2q-.3 1.7-1.4 2.6-1.1.9-2.7.9-2 0-3.2-1.3-1.2-1.3-1.2-3.7 0-1.6.5-2.8.5-1.2 1.6-1.8 1.1-.6 2.3-.6 1.6 0 2.6.8 1 .8 1.3 2.3l-1.6.2q-.2-1-.8-1.5-.6-.5-1.4-.5-1.2 0-2 .9-.8.9-.8 2.8 0 2 .8 2.8.8.9 2 .9 1 0 1.6-.6.7-.6.8-1.8zm3 3.5v-13.4h1.6v7.6l3.9-3.9h2.1l-3.7 3.6 4.1 6.1h-2l-3.2-5-1.2 1.1v3.8h-1.6zm16-3.1 1.7.2q-.4 1.5-1.5 2.3-1.1.8-2.8.8-2.1 0-3.4-1.3-1.2-1.3-1.2-3.7 0-2.5 1.3-3.8 1.3-1.3 3.3-1.3 1.9 0 3.2 1.3 1.2 1.3 1.2 3.7 0 .2 0 .4h-7.2q.1 1.6.9 2.5.8.8 2 .8.9 0 1.5-.5.6-.5 1-1.5zm-5.4-2.7h5.4q-.1-1.2-.6-1.8-.8-1-2-1-1.1 0-1.9.8-.8.8-.8 2zm12.7 4.3.2 1.5q-.7.1-1.2.1-.9 0-1.4-.3-.5-.3-.7-.7-.2-.5-.2-1.9v-5.6h-1.2v-1.3h1.2v-2.4l1.6-1v3.4h1.7v1.3h-1.7v5.7q0 .7.1.9.1.2.3.3.2.1.6.1.3 0 .7-.1z" fill="#000"/><path d="m397.5 146.6c0-7.9 6.4-14.3 14.3-14.3h57.1c3.8 0 7.4 1.5 10.1 4.2s4.2 6.3 4.2 10.1v93.1c0 7.9-6.4 14.3-14.3 14.3h-57.1c-7.9 0-14.3-6.4-14.3-14.3z" fill="none"/><path d="m397.5 146.6c0-7.9 6.4-14.3 14.3-14.3h57.1c3.8 0 7.4 1.5 10.1 4.2s4.2 6.3 4.2 10.1v93.1c0 7.9-6.4 14.3-14.3 14.3h-57.1c-7.9 0-14.3-6.4-14.3-14.3z" fill-rule="evenodd" stroke="#000" stroke-linecap="butt" stroke-linejoin="round"/><path d="m415.5 189.1v-11.8h-4.4v-1.6h10.6v1.6h-4.4v11.8zm17.5-4.7 1.8.5q-.6 2.2-2 3.3-1.4 1.1-3.5 1.1-2.2 0-3.5-.9-1.3-.9-2.1-2.5-.7-1.7-.7-3.6 0-2.1.8-3.6.8-1.6 2.3-2.4 1.5-.8 3.3-.8 2 0 3.4 1 1.4 1 1.9 2.9l-1.7.4q-.5-1.5-1.4-2.1-.9-.7-2.2-.7-1.5 0-2.6.7-1 .7-1.5 2-.4 1.2-.4 2.6 0 1.7.5 3 .5 1.3 1.5 1.9 1 .6 2.3.6 1.5 0 2.5-.9 1-.9 1.4-2.5zm3.9 4.7v-13.4h5q1.3 0 2 .1 1 .2 1.6.6.7.5 1.1 1.3.4.8.4 1.8 0 1.7-1.1 2.9-1.1 1.2-3.9 1.2h-3.4v5.4h-1.8zm1.8-7h3.5q1.7 0 2.4-.6.7-.6.7-1.8 0-.8-.4-1.4-.4-.6-1.1-.8-.4-.1-1.6-.1h-3.4v4.8z" fill="#000"/><path d="m411.2 208.2 1.6-.3q.1 1 .8 1.5.6.5 1.8.5 1.1 0 1.7-.5.5-.5.5-1.1 0-.5-.5-.9-.3-.2-1.7-.5-1.8-.5-2.5-.8-.7-.3-1-.9-.4-.6-.4-1.3 0-.6.3-1.2.3-.6.8-.9.4-.3 1-.5.7-.2 1.4-.2 1.1 0 2 .3.9.3 1.3.9.4.6.6 1.5l-1.6.2q-.1-.8-.6-1.2-.5-.4-1.5-.4-1.1 0-1.6.4-.5.4-.5.9 0 .3.2.6.2.3.6.4.2.1 1.4.4 1.8.5 2.4.8.7.3 1.1.9.4.6.4 1.4 0 .8-.5 1.5-.5.7-1.4 1.1-.9.4-2 .4-1.9 0-2.9-.8-1-.8-1.3-2.3zm9.4-2q0-2.7 1.5-4 1.3-1.1 3-1.1 2 0 3.3 1.3 1.3 1.3 1.3 3.6 0 1.9-.6 2.9-.6 1.1-1.6 1.7-1.1.6-2.3.6-2 0-3.3-1.3-1.3-1.3-1.3-3.8zm1.7 0q0 1.9.8 2.8.8.9 2 .9 1.2 0 2-.9.8-.9.8-2.8 0-1.8-.8-2.7-.8-.9-2-.9-1.2 0-2 .9-.8.9-.8 2.8zm15.6 1.3 1.6.2q-.3 1.7-1.4 2.6-1.1.9-2.7.9-2 0-3.2-1.3-1.2-1.3-1.2-3.7 0-1.6.5-2.8.5-1.2 1.6-1.8 1.1-.6 2.3-.6 1.6 0 2.6.8 1 .8 1.3 2.3l-1.6.2q-.2-1-.8-1.5-.6-.5-1.4-.5-1.2 0-2 .9-.8.9-.8 2.8 0 2 .8 2.8.8.9 2 .9 1 0 1.6-.6.7-.6.8-1.8zm3 3.5v-13.4h1.6v7.6l3.9-3.9h2.1l-3.7 3.6 4.1 6.1h-2l-3.2-5-1.2 1.1v3.8h-1.6zm16-3.1 1.7.2q-.4 1.5-1.5 2.3-1.1.8-2.8.8-2.1 0-3.4-1.3-1.2-1.3-1.2-3.7 0-2.5 1.3-3.8 1.3-1.3 3.3-1.3 1.9 0 3.2 1.3 1.2 1.3 1.2 3.7 0 .2 0 .4h-7.2q.1 1.6.9 2.5.8.8 2 .8.9 0 1.5-.5.6-.5 1-1.5zm-5.4-2.7h5.4q-.1-1.2-.6-1.8-.8-1-2-1-1.1 0-1.9.8-.8.8-.8 2zm12.7 4.3.2 1.5q-.7.1-1.2.1-.9 0-1.4-.3-.5-.3-.7-.7-.2-.5-.2-1.9v-5.6h-1.2v-1.3h1.2v-2.4l1.6-1v3.4h1.7v1.3h-1.7v5.7q0 .7.1.9.1.2.3.3.2.1.6.1.3 0 .7-.1z" fill="#000"/><path d="m74.8 24.1h148.8v78.6h-148.8z" fill="none"/><path d="m74.8 24.1h148.8v78.6h-148.8z" fill-rule="evenodd" stroke="#000" stroke-linecap="butt" stroke-linejoin="round"/><path d="m87.6 51-3.5-13.4h1.8l2 8.8q.3 1.4.6 2.7.5-2.1.6-2.5l2.5-9h2.1l1.9 6.8q.7 2.5 1 4.7.3-1.3.7-2.9l2.1-8.6h1.8l-3.7 13.4h-1.7l-2.8-10.2q-.4-1.3-.4-1.6-.2.9-.4 1.6l-2.8 10.2zm15.1-11.5v-1.9h1.6v1.9zm0 11.5v-9.7h1.6v9.7zm4.1 0v-9.7h1.5v1.5q.6-1 1-1.4.5-.3 1.1-.3.8 0 1.7.5l-.6 1.5q-.6-.4-1.2-.4-.5 0-1 .3-.4.3-.6.9-.3.9-.3 1.9v5.1h-1.6zm12.9-3.1 1.7.2q-.4 1.5-1.5 2.3-1.1.8-2.8.8-2.1 0-3.4-1.3-1.2-1.3-1.2-3.7 0-2.5 1.3-3.8 1.3-1.3 3.3-1.3 1.9 0 3.2 1.3 1.2 1.3 1.2 3.7 0 .2 0 .4h-7.2q.1 1.6.9 2.5.8.8 2 .8.9 0 1.5-.5.6-.5 1-1.5zm-5.4-2.7h5.4q-.1-1.2-.6-1.8-.8-1-2-1-1.1 0-1.9.8-.8.8-.8 2zm8.8 6.6 1.6.2q.1.8.6 1.1.6.5 1.7.5 1.1 0 1.7-.5.6-.5.8-1.3.1-.5.1-2.1-1.1 1.3-2.7 1.3-2 0-3.1-1.4-1.1-1.4-1.1-3.5 0-1.4.5-2.6.5-1.2 1.5-1.8 1-.6 2.3-.6 1.7 0 2.8 1.4v-1.2h1.5v8.4q0 2.3-.5 3.2-.5.9-1.5 1.5-1 .5-2.5.5-1.7 0-2.8-.8-1.1-.8-1-2.3zm1.4-5.8q0 1.9.8 2.8.8.9 1.9.9 1.1 0 1.9-.9.8-.9.8-2.7 0-1.8-.8-2.7-.8-.9-1.9-.9-1.1 0-1.9.9-.8.9-.8 2.6zm15.7 5v-1.4q-1.1 1.6-3.1 1.6-.9 0-1.6-.3-.7-.3-1.1-.8-.4-.5-.5-1.2-.1-.5-.1-1.5v-6h1.6v5.4q0 1.3.1 1.7.2.6.7 1 .5.4 1.2.4.7 0 1.4-.4.7-.4.9-1 .3-.7.3-1.9v-5.2h1.6v9.7h-1.5zm10.4-1.2q-.9.8-1.8 1.1-.8.3-1.8.3-1.6 0-2.5-.8-.9-.8-.9-2 0-.7.3-1.3.3-.6.8-.9.5-.4 1.2-.5.5-.1 1.5-.3 2-.2 2.9-.6 0-.3 0-.4 0-1-.5-1.4-.6-.5-1.9-.5-1.2 0-1.7.4-.5.4-.8 1.4l-1.6-.2q.2-1 .7-1.6.5-.6 1.5-1 1-.3 2.2-.3 1.3 0 2 .3.8.3 1.1.7.4.4.5 1.1.1.4.1 1.5v2.2q0 2.3.1 2.9.1.6.4 1.2h-1.7q-.3-.5-.3-1.2zm-.1-3.7q-.9.4-2.7.6-1 .1-1.4.3-.4.2-.7.5-.2.3-.2.8 0 .7.5 1.1.5.4 1.5.4.9 0 1.7-.4.8-.4 1.1-1.1.3-.6.3-1.6v-.6zm4.2 4.9v-9.7h1.5v1.5q.6-1 1-1.4.5-.3 1.1-.3.8 0 1.7.5l-.6 1.5q-.6-.4-1.2-.4-.5 0-1 .3-.4.3-.6.9-.3.9-.3 1.9v5.1h-1.6zm12.5 0v-1.2q-.9 1.4-2.7 1.4-1.2 0-2.1-.6-1-.6-1.5-1.8-.5-1.1-.5-2.6 0-1.5.5-2.6.5-1.2 1.4-1.8 1-.6 2.2-.6.9 0 1.5.4.7.4 1.1 1v-4.8h1.6v13.4h-1.5zm-5.2-4.8q0 1.9.8 2.8.8.9 1.8.9 1.1 0 1.8-.9.8-.9.8-2.7 0-2-.8-2.9-.8-.9-1.9-.9-1.1 0-1.8.9-.7.9-.7 2.8z" fill="#000"/><path d="m223.6 24.1h282v78.6h-282z" fill="none"/><path d="m223.6 24.1h282v78.6h-282z" fill-rule="evenodd" stroke="#000" stroke-linecap="butt" stroke-linejoin="round"/><path d="m242.8 37.6h1.8v7.7q0 2-.5 3.2-.5 1.2-1.6 1.9-1.2.7-3.1.7-1.9 0-3.1-.6-1.2-.7-1.7-1.9-.5-1.2-.5-3.4v-7.7h1.8v7.7q0 1.7.3 2.6.3.8 1.1 1.3.8.5 1.9.5 2 0 2.8-.9.8-.9.8-3.4zm3.8 10.5 1.6-.3q.1 1 .8 1.5.6.5 1.8.5 1.1 0 1.7-.5.5-.5.5-1.1 0-.5-.5-.9-.3-.2-1.7-.5-1.8-.5-2.5-.8-.7-.3-1-.9-.4-.6-.4-1.3 0-.6.3-1.2.3-.6.8-.9.4-.3 1-.5.7-.2 1.4-.2 1.1 0 2 .3.9.3 1.3.9.4.6.6 1.5l-1.6.2q-.1-.8-.6-1.2-.5-.4-1.5-.4-1.1 0-1.6.4-.5.4-.5.9 0 .3.2.6.2.3.6.4.2.1 1.4.4 1.8.5 2.4.8.7.3 1.1.9.4.6.4 1.4 0 .8-.5 1.5-.5.7-1.4 1.1-.9.4-2 .4-1.9 0-2.9-.8-1-.8-1.3-2.3zm16.6-.2 1.7.2q-.4 1.5-1.5 2.3-1.1.8-2.8.8-2.1 0-3.4-1.3-1.2-1.3-1.2-3.7 0-2.5 1.3-3.8 1.3-1.3 3.3-1.3 1.9 0 3.2 1.3 1.2 1.3 1.2 3.7 0 .2 0 .4h-7.2q.1 1.6.9 2.5.8.8 2 .8.9 0 1.5-.5.6-.5 1-1.5zm-5.4-2.7h5.4q-.1-1.2-.6-1.8-.8-1-2-1-1.1 0-1.9.8-.8.8-.8 2zm9.1 5.8v-9.7h1.5v1.5q.6-1 1-1.4.5-.3 1.1-.3.8 0 1.7.5l-.6 1.5q-.6-.4-1.2-.4-.5 0-1 .3-.4.3-.6.9-.3.9-.3 1.9v5.1h-1.6zm5.6-4v-1.6h5v1.6zm6.2 1.1 1.6-.3q.1 1 .8 1.5.6.5 1.8.5 1.1 0 1.7-.5.5-.5.5-1.1 0-.5-.5-.9-.3-.2-1.7-.5-1.8-.5-2.5-.8-.7-.3-1-.9-.4-.6-.4-1.3 0-.6.3-1.2.3-.6.8-.9.4-.3 1-.5.7-.2 1.4-.2 1.1 0 2 .3.9.3 1.3.9.4.6.6 1.5l-1.6.2q-.1-.8-.6-1.2-.5-.4-1.5-.4-1.1 0-1.6.4-.5.4-.5.9 0 .3.2.6.2.3.6.4.2.1 1.4.4 1.8.5 2.4.8.7.3 1.1.9.4.6.4 1.4 0 .8-.5 1.5-.5.7-1.4 1.1-.9.4-2 .4-1.9 0-2.9-.8-1-.8-1.3-2.3zm10 6.6v-13.4h1.5v1.3q.5-.7 1.2-1.1.7-.4 1.6-.4 1.2 0 2.2.6 1 .6 1.4 1.8.5 1.2.5 2.5 0 1.5-.5 2.7-.5 1.2-1.5 1.8-1 .6-2.1.6-.8 0-1.5-.3-.7-.3-1.1-.9v4.7h-1.6zm1.5-8.5q0 1.9.8 2.8.8.9 1.8.9 1.1 0 1.9-.9.8-.9.8-2.9 0-1.8-.8-2.8-.8-.9-1.8-.9-1 0-1.9 1-.8 1-.8 2.8zm15.2 3.6q-.9.8-1.8 1.1-.8.3-1.8.3-1.6 0-2.5-.8-.9-.8-.9-2 0-.7.3-1.3.3-.6.8-.9.5-.4 1.2-.5.5-.1 1.5-.3 2-.2 2.9-.6 0-.3 0-.4 0-1-.5-1.4-.6-.5-1.9-.5-1.2 0-1.7.4-.5.4-.8 1.4l-1.6-.2q.2-1 .7-1.6.5-.6 1.5-1 1-.3 2.2-.3 1.3 0 2 .3.8.3 1.1.7.4.4.5 1.1.1.4.1 1.5v2.2q0 2.3.1 2.9.1.6.4 1.2h-1.7q-.3-.5-.3-1.2zm-.1-3.7q-.9.4-2.7.6-1 .1-1.4.3-.4.2-.7.5-.2.3-.2.8 0 .7.5 1.1.5.4 1.5.4.9 0 1.7-.4.8-.4 1.1-1.1.3-.6.3-1.6v-.6zm10.5 1.3 1.6.2q-.3 1.7-1.4 2.6-1.1.9-2.7.9-2 0-3.2-1.3-1.2-1.3-1.2-3.7 0-1.6.5-2.8.5-1.2 1.6-1.8 1.1-.6 2.3-.6 1.6 0 2.6.8 1 .8 1.3 2.3l-1.6.2q-.2-1-.8-1.5-.6-.5-1.4-.5-1.2 0-2 .9-.8.9-.8 2.8 0 2 .8 2.8.8.9 2 .9 1 0 1.6-.6.7-.6.8-1.8zm9.6.4 1.7.2q-.4 1.5-1.5 2.3-1.1.8-2.8.8-2.1 0-3.4-1.3-1.2-1.3-1.2-3.7 0-2.5 1.3-3.8 1.3-1.3 3.3-1.3 1.9 0 3.2 1.3 1.2 1.3 1.2 3.7 0 .2 0 .4h-7.2q.1 1.6.9 2.5.8.8 2 .8.9 0 1.5-.5.6-.5 1-1.5zm-5.4-2.7h5.4q-.1-1.2-.6-1.8-.8-1-2-1-1.1 0-1.9.8-.8.8-.8 2zm17.6 5.8v-11.8h-4.4v-1.6h10.6v1.6h-4.4v11.8zm17.5-4.7 1.8.5q-.6 2.2-2 3.3-1.4 1.1-3.5 1.1-2.2 0-3.5-.9-1.3-.9-2.1-2.5-.7-1.7-.7-3.6 0-2.1.8-3.6.8-1.6 2.3-2.4 1.5-.8 3.3-.8 2 0 3.4 1 1.4 1 1.9 2.9l-1.7.4q-.5-1.5-1.4-2.1-.9-.7-2.2-.7-1.5 0-2.6.7-1 .7-1.5 2-.4 1.2-.4 2.6 0 1.7.5 3 .5 1.3 1.5 1.9 1 .6 2.3.6 1.5 0 2.5-.9 1-.9 1.4-2.5zm3.9 4.7v-13.4h5q1.3 0 2 .1 1 .2 1.6.6.7.5 1.1 1.3.4.8.4 1.8 0 1.7-1.1 2.9-1.1 1.2-3.9 1.2h-3.4v5.4h-1.8zm1.8-7h3.5q1.7 0 2.4-.6.7-.6.7-1.8 0-.8-.4-1.4-.4-.6-1.1-.8-.4-.1-1.6-.1h-3.4v4.8zm9.2 7.2 3.9-13.8h1.3l-3.9 13.8zm6.9-.2v-13.4h1.8v13.4zm4.9 0v-13.4h5q1.3 0 2 .1 1 .2 1.6.6.7.5 1.1 1.3.4.8.4 1.8 0 1.7-1.1 2.9-1.1 1.2-3.9 1.2h-3.4v5.4h-1.8zm1.8-7h3.5q1.7 0 2.4-.6.7-.6.7-1.8 0-.8-.4-1.4-.4-.6-1.1-.8-.4-.1-1.6-.1h-3.4v4.8zm14.7 4.1 1.6-.3q.1 1 .8 1.5.6.5 1.8.5 1.1 0 1.7-.5.5-.5.5-1.1 0-.5-.5-.9-.3-.2-1.7-.5-1.8-.5-2.5-.8-.7-.3-1-.9-.4-.6-.4-1.3 0-.6.3-1.2.3-.6.8-.9.4-.3 1-.5.7-.2 1.4-.2 1.1 0 2 .3.9.3 1.3.9.4.6.6 1.5l-1.6.2q-.1-.8-.6-1.2-.5-.4-1.5-.4-1.1 0-1.6.4-.5.4-.5.9 0 .3.2.6.2.3.6.4.2.1 1.4.4 1.8.5 2.4.8.7.3 1.1.9.4.6.4 1.4 0 .8-.5 1.5-.5.7-1.4 1.1-.9.4-2 .4-1.9 0-2.9-.8-1-.8-1.3-2.3zm13.6 1.4.2 1.5q-.7.1-1.2.1-.9 0-1.4-.3-.5-.3-.7-.7-.2-.5-.2-1.9v-5.6h-1.2v-1.3h1.2v-2.4l1.6-1v3.4h1.7v1.3h-1.7v5.7q0 .7.1.9.1.2.3.3.2.1.6.1.3 0 .7-.1zm7.9.3q-.9.8-1.8 1.1-.8.3-1.8.3-1.6 0-2.5-.8-.9-.8-.9-2 0-.7.3-1.3.3-.6.8-.9.5-.4 1.2-.5.5-.1 1.5-.3 2-.2 2.9-.6 0-.3 0-.4 0-1-.5-1.4-.6-.5-1.9-.5-1.2 0-1.7.4-.5.4-.8 1.4l-1.6-.2q.2-1 .7-1.6.5-.6 1.5-1 1-.3 2.2-.3 1.3 0 2 .3.8.3 1.1.7.4.4.5 1.1.1.4.1 1.5v2.2q0 2.3.1 2.9.1.6.4 1.2h-1.7q-.3-.5-.3-1.2zm-.1-3.7q-.9.4-2.7.6-1 .1-1.4.3-.4.2-.7.5-.2.3-.2.8 0 .7.5 1.1.5.4 1.5.4.9 0 1.7-.4.8-.4 1.1-1.1.3-.6.3-1.6v-.6zm10.5 1.3 1.6.2q-.3 1.7-1.4 2.6-1.1.9-2.7.9-2 0-3.2-1.3-1.2-1.3-1.2-3.7 0-1.6.5-2.8.5-1.2 1.6-1.8 1.1-.6 2.3-.6 1.6 0 2.6.8 1 .8 1.3 2.3l-1.6.2q-.2-1-.8-1.5-.6-.5-1.4-.5-1.2 0-2 .9-.8.9-.8 2.8 0 2 .8 2.8.8.9 2 .9 1 0 1.6-.6.7-.6.8-1.8zm3 3.5v-13.4h1.6v7.6l3.9-3.9h2.1l-3.7 3.6 4.1 6.1h-2l-3.2-5-1.2 1.1v3.8h-1.6z" fill="#000"/><path d="m15.3 376.3c7.5-.8 32.5 17.7 45.2-4.8 12.7-22.4 25.6-87.9 30.9-129.7 5.4-41.9 3-98.2 1.2-121.4s-9.9-14.9-11.9-17.9" fill="none"/><path d="m15.3 376.3c7.5-.8 32.5 17.7 45.2-4.8 12.7-22.4 25.6-87.9 30.9-129.7 5.4-41.9 3-98.2 1.2-121.4s-9.9-14.9-11.9-17.9" fill-rule="evenodd" stroke="#38761d" stroke-linecap="butt" stroke-linejoin="round" stroke-width="3"/><path d="m22.5 551.3c3.2-2.8.8-9.3 19-16.7 18.2-7.3 71-10.3 90.4-27.4s19.8-39.7 26.2-75c6.3-35.3 10.7-103.7 11.9-136.9 1.2-33.1-3.6-39.5-4.8-61.9s-4.6-55.9-2.4-72.6 5.6-17.5 15.5-27.4 36.7-26.8 44-32.1" fill="none"/><path d="m22.5 551.3c3.2-2.8.8-9.3 19-16.7 18.2-7.3 71-10.3 90.4-27.4s19.8-39.7 26.2-75c6.3-35.3 10.7-103.7 11.9-136.9 1.2-33.1-3.6-39.5-4.8-61.9s-4.6-55.9-2.4-72.6 5.6-17.5 15.5-27.4 36.7-26.8 44-32.1" fill-rule="evenodd" stroke="#38761d" stroke-linecap="butt" stroke-linejoin="round" stroke-width="3"/><path d="m15.3 414.4c8.3.2 33.1 25 50 1.2s42.6-94.6 51.2-144c8.5-49.4-3.4-116.6 0-152.3s-11.1-52.2 20.2-61.9 117.6 2.4 167.8 3.6 108.3-25.8 133.3 3.6 8.7 118.8 16.7 172.6c7.9 53.8 10.9 122 30.9 150 20 27.9 74.2 14.7 89.1 17.7" fill="none"/><path d="m15.3 414.4c8.3.2 33.1 25 50 1.2s42.6-94.6 51.2-144c8.5-49.4-3.4-116.6 0-152.3s-11.1-52.2 20.2-61.9 117.6 2.4 167.8 3.6 108.3-25.8 133.3 3.6 8.7 118.8 16.7 172.6c7.9 53.8 10.9 122 30.9 150 10 14 28.6 17.6 46.5 18.2 9 .3 17.8-.2 25.2-.6 3.7-.2 7.2-.4 10.1-.4h.4" fill-rule="evenodd" stroke="#00f" stroke-linecap="butt" stroke-linejoin="round" stroke-width="2"/><path d="m567.6 404.2-2.4 2.1 6.3-1.8-6-2.7z" fill="#00f" fill-rule="evenodd" stroke="#00f" stroke-linecap="butt" stroke-width="2"/><path d="m616.3 373.6v170h-42v-170z" fill="none"/><path d="m589.4 384.1h13.4v9.7h-1.6v-7.9h-4.1v7.4h-1.6v-7.4h-4.5v8.2h-1.6zm0 11.1 5 3.5 4.6-3.3v2l-2.3 1.5q-.6.4-1.1.7.6.4 1.1.7l2.3 1.6v2l-4.5-3.3-5.1 3.6v-2l3-2 .8-.5-3.8-2.5zm1.5 14-1.5.2q-.1-.7-.1-1.2 0-.9.3-1.4.3-.5.7-.7.5-.2 1.9-.2h5.6v-1.2h1.3v1.2h2.4l1 1.6h-3.4v1.7h-1.3v-1.7h-5.7q-.7 0-.9.1-.2.1-.3.3-.1.2-.1.6 0 .3.1.7zm1.6 8.2-.2 1.7q-1.5-.4-2.3-1.5-.8-1.1-.8-2.8 0-2.1 1.3-3.4 1.3-1.2 3.7-1.2 2.5 0 3.8 1.3 1.3 1.3 1.3 3.3 0 1.9-1.3 3.2-1.3 1.2-3.7 1.2-.2 0-.4 0v-7.2q-1.6.1-2.5.9-.8.8-.8 2 0 .9.5 1.5.5.6 1.5 1zm2.7-5.4v5.4q1.2-.1 1.8-.6 1-.8 1-2 0-1.1-.8-1.9-.8-.8-2-.8zm-5.8 9.1h9.7v1.5h-1.5q1 .6 1.4 1 .3.5.3 1.1 0 .8-.5 1.7l-1.5-.6q.4-.6.4-1.2 0-.5-.3-1-.3-.4-.9-.6-.9-.3-1.9-.3h-5.1v-1.6zm0 6.2h9.7v1.5h-1.4q1.6 1.1 1.6 3.1 0 .9-.3 1.6-.3.7-.8 1.1-.5.4-1.2.5-.5.1-1.6.1h-6v-1.6h5.9q1 0 1.5-.2.5-.2.8-.7.3-.5.3-1.1 0-1-.7-1.8-.7-.8-2.5-.8h-5.3v-1.6zm1.2 16.7q-.8-.9-1.1-1.8-.3-.8-.3-1.8 0-1.6.8-2.5.8-.9 2-.9.7 0 1.3.3.6.3.9.8.4.5.5 1.2.1.5.3 1.5.2 2 .6 2.9.3 0 .4 0 1 0 1.4-.5.5-.6.5-1.9 0-1.2-.4-1.7-.4-.5-1.4-.8l.2-1.6q1 .2 1.6.7.6.5 1 1.5.3 1 .3 2.2 0 1.3-.3 2-.3.8-.7 1.1-.4.4-1.1.5-.4.1-1.5.1h-2.2q-2.3 0-2.9.1-.6.1-1.2.4v-1.7q.5-.3 1.2-.3zm3.7-.1q-.4-.9-.6-2.7-.1-1-.3-1.4-.2-.4-.5-.7-.3-.2-.8-.2-.7 0-1.1.5-.4.5-.4 1.5 0 .9.4 1.7.4.8 1.1 1.1.6.3 1.6.3h.6zm-4.9 4.2h13.4v1.6h-13.4zm2.9 8.7.3 1.6q-1 .1-1.5.8-.5.6-.5 1.8 0 1.1.5 1.7.5.5 1.1.5.5 0 .9-.5.2-.3.5-1.7.5-1.8.8-2.5.3-.7.9-1 .6-.4 1.3-.4.6 0 1.2.3.6.3.9.8.3.4.5 1 .2.7.2 1.4 0 1.1-.3 2-.3.9-.9 1.3-.6.4-1.5.6l-.2-1.6q.8-.1 1.2-.6.4-.5.4-1.5 0-1.1-.4-1.6-.4-.5-.9-.5-.3 0-.6.2-.3.2-.4.6-.1.2-.4 1.4-.5 1.8-.8 2.4-.3.7-.9 1.1-.6.4-1.4.4-.8 0-1.5-.5-.7-.5-1.1-1.4-.4-.9-.4-2 0-1.9.8-2.9.8-1 2.3-1.3zm.2 16.6-.2 1.7q-1.5-.4-2.3-1.5-.8-1.1-.8-2.8 0-2.1 1.3-3.4 1.3-1.2 3.7-1.2 2.5 0 3.8 1.3 1.3 1.3 1.3 3.3 0 1.9-1.3 3.2-1.3 1.2-3.7 1.2-.2 0-.4 0v-7.2q-1.6.1-2.5.9-.8.8-.8 2 0 .9.5 1.5.5.6 1.5 1zm2.7-5.4v5.4q1.2-.1 1.8-.6 1-.8 1-2 0-1.1-.8-1.9-.8-.8-2-.8zm-5.8 9.1h9.7v1.5h-1.5q1 .6 1.4 1 .3.5.3 1.1 0 .8-.5 1.7l-1.5-.6q.4-.6.4-1.2 0-.5-.3-1-.3-.4-.9-.6-.9-.3-1.9-.3h-5.1v-1.6zm0 8.9 9.7-3.7v1.7l-5.8 2.1q-.9.3-1.9.6.8.2 1.8.6l5.9 2.1v1.7l-9.7-3.7v-1.5zm11.5 6.6h1.9v1.6h-1.9zm-11.5 0h9.7v1.6h-9.7zm3.5 10.5-.2 1.6q-1.7-.3-2.6-1.4-.9-1.1-.9-2.7 0-2 1.3-3.2 1.3-1.2 3.7-1.2 1.6 0 2.8.5 1.2.5 1.8 1.6.6 1.1.6 2.3 0 1.6-.8 2.6-.8 1-2.3 1.3l-.2-1.6q1-.2 1.5-.8.5-.6.5-1.4 0-1.2-.9-2-.9-.8-2.8-.8-2 0-2.8.8-.9.8-.9 2 0 1 .6 1.6.6.7 1.8.8zm-.4 9.6-.2 1.7q-1.5-.4-2.3-1.5-.8-1.1-.8-2.8 0-2.1 1.3-3.4 1.3-1.2 3.7-1.2 2.5 0 3.8 1.3 1.3 1.3 1.3 3.3 0 1.9-1.3 3.2-1.3 1.2-3.7 1.2-.2 0-.4 0v-7.2q-1.6.1-2.5.9-.8.8-.8 2 0 .9.5 1.5.5.6 1.5 1zm2.7-5.4v5.4q1.2-.1 1.8-.6 1-.8 1-2 0-1.1-.8-1.9-.8-.8-2-.8zm-2.9 8.5.3 1.6q-1 .1-1.5.8-.5.6-.5 1.8 0 1.1.5 1.7.5.5 1.1.5.5 0 .9-.5.2-.3.5-1.7.5-1.8.8-2.5.3-.7.9-1 .6-.4 1.3-.4.6 0 1.2.3.6.3.9.8.3.4.5 1 .2.7.2 1.4 0 1.1-.3 2-.3.9-.9 1.3-.6.4-1.5.6l-.2-1.6q.8-.1 1.2-.6.4-.5.4-1.5 0-1.1-.4-1.6-.4-.5-.9-.5-.3 0-.6.2-.3.2-.4.6-.1.2-.4 1.4-.5 1.8-.8 2.4-.3.7-.9 1.1-.6.4-1.4.4-.8 0-1.5-.5-.7-.5-1.1-1.4-.4-.9-.4-2 0-1.9.8-2.9.8-1 2.3-1.3z" fill="#00f"/><path d="m16.5 472.7c13.5-1.8 60.9 9.7 80.9-10.7s32.7-63.5 39.3-111.9c6.5-48.4-1.8-133.7 0-178.5s-17.3-75.6 10.7-90.4c28-14.9 124.6-5.9 157.1 1.2s29.2 1 38.1 41.7-5.4 146.6 15.5 202.3c20.8 55.7 72.8 106.9 109.5 132.1s92.2 15.9 110.7 19" fill="none"/><path d="m16.5 472.7c13.5-1.8 60.9 9.7 80.9-10.7s32.7-63.5 39.3-111.9c6.5-48.4-1.8-133.7 0-178.5s-17.3-75.6 10.7-90.4c28-14.9 124.6-5.9 157.1 1.2s29.2 1 38.1 41.7-5.4 146.6 15.5 202.3c20.8 55.7 72.8 106.9 109.5 132.1 18.3 12.6 41.4 16.6 62.2 17.8 10.4.6 20.2.5 28.6.5 4.2 0 8 0 11.4.1h1.2.5" fill-rule="evenodd" stroke="#00f" stroke-linecap="butt" stroke-linejoin="round" stroke-width="2"/><path d="m571.4 476.8-2.4 2 6.4-1.7-5.9-2.8z" fill="#00f" fill-rule="evenodd" stroke="#00f" stroke-linecap="butt" stroke-width="2"/><path d="m346.2 219.2c-7.3 14.5-43.2 50.2-44 86.9s4.6 97.6 39.3 133.3 129.1 67.2 169 80.9 58.5 1 70.2 1.2" fill="none"/><g fill-rule="evenodd"><path d="m346.2 219.2c-7.3 14.5-43.2 50.2-44 86.9s4.6 97.6 39.3 133.3 129.1 67.2 169 80.9c19.9 6.8 34.6 7.1 45.7 5.7 5.6-.7 10.2-1.9 14.2-2.8 1-.2 2-.5 2.9-.7l.6-.1" stroke="#00f" stroke-linecap="butt" stroke-linejoin="round" stroke-width="2"/><path d="m573.8 522.4-1.9 2.5 5.8-3-6.4-1.5z" fill="#00f" stroke="#00f" stroke-linecap="butt" stroke-width="2"/><path d="m82.3 348.5v226.1h-42v-226.1z" fill="#fff" fill-opacity=".6"/></g><path d="m55.4 359h13.4v9.7h-1.6v-7.9h-4.1v7.4h-1.6v-7.4h-4.5v8.2h-1.6zm0 11.1 5 3.5 4.6-3.3v2l-2.3 1.5q-.6.4-1.1.7.6.4 1.1.7l2.3 1.6v2l-4.5-3.3-5.1 3.6v-2l3-2 .8-.5-3.8-2.5zm1.5 14-1.5.2q-.1-.7-.1-1.2 0-.9.3-1.4.3-.5.7-.7.5-.2 1.9-.2h5.6v-1.2h1.3v1.2h2.4l1 1.6h-3.4v1.7h-1.3v-1.7h-5.7q-.7 0-.9.1-.2.1-.3.3-.1.2-.1.6 0 .3.1.7zm1.6 8.2-.2 1.7q-1.5-.4-2.3-1.5-.8-1.1-.8-2.8 0-2.1 1.3-3.4 1.3-1.2 3.7-1.2 2.5 0 3.8 1.3 1.3 1.3 1.3 3.3 0 1.9-1.3 3.2-1.3 1.2-3.7 1.2-.2 0-.4 0v-7.2q-1.6.1-2.5.9-.8.8-.8 2 0 .9.5 1.5.5.6 1.5 1zm2.7-5.4v5.4q1.2-.1 1.8-.6 1-.8 1-2 0-1.1-.8-1.9-.8-.8-2-.8zm-5.8 9.1h9.7v1.5h-1.5q1 .6 1.4 1 .3.5.3 1.1 0 .8-.5 1.7l-1.5-.6q.4-.6.4-1.2 0-.5-.3-1-.3-.4-.9-.6-.9-.3-1.9-.3h-5.1v-1.6zm0 6.2h9.7v1.5h-1.4q1.6 1.1 1.6 3.1 0 .9-.3 1.6-.3.7-.8 1.1-.5.4-1.2.5-.5.1-1.6.1h-6v-1.6h5.9q1 0 1.5-.2.5-.2.8-.7.3-.5.3-1.1 0-1-.7-1.8-.7-.8-2.5-.8h-5.3v-1.6zm1.2 16.7q-.8-.9-1.1-1.8-.3-.8-.3-1.8 0-1.6.8-2.5.8-.9 2-.9.7 0 1.3.3.6.3.9.8.4.5.5 1.2.1.5.3 1.5.2 2 .6 2.9.3 0 .4 0 1 0 1.4-.5.5-.6.5-1.9 0-1.2-.4-1.7-.4-.5-1.4-.8l.2-1.6q1 .2 1.6.7.6.5 1 1.5.3 1 .3 2.2 0 1.3-.3 2-.3.8-.7 1.1-.4.4-1.1.5-.4.1-1.5.1h-2.2q-2.3 0-2.9.1-.6.1-1.2.4v-1.7q.5-.3 1.2-.3zm3.7-.1q-.4-.9-.6-2.7-.1-1-.3-1.4-.2-.4-.5-.7-.3-.2-.8-.2-.7 0-1.1.5-.4.5-.4 1.5 0 .9.4 1.7.4.8 1.1 1.1.6.3 1.6.3h.6zm-4.9 4.2h13.4v1.6h-13.4zm0 11.9 13.4-3.5v1.8l-8.8 2q-1.4.3-2.7.6 2.1.5 2.5.6l9 2.5v2.1l-6.8 1.9q-2.5.7-4.7 1 1.3.3 2.9.7l8.6 2.1v1.8l-13.4-3.7v-1.7l10.2-2.8q1.3-.4 1.6-.4-.9-.2-1.6-.4l-10.2-2.8zm11.5 15.1h1.9v1.6h-1.9zm-11.5 0h9.7v1.6h-9.7zm0 4.1h9.7v1.5h-1.5q1 .6 1.4 1 .3.5.3 1.1 0 .8-.5 1.7l-1.5-.6q.4-.6.4-1.2 0-.5-.3-1-.3-.4-.9-.6-.9-.3-1.9-.3h-5.1v-1.6zm3.1 12.9-.2 1.7q-1.5-.4-2.3-1.5-.8-1.1-.8-2.8 0-2.1 1.3-3.4 1.3-1.2 3.7-1.2 2.5 0 3.8 1.3 1.3 1.3 1.3 3.3 0 1.9-1.3 3.2-1.3 1.2-3.7 1.2-.2 0-.4 0v-7.2q-1.6.1-2.5.9-.8.8-.8 2 0 .9.5 1.5.5.6 1.5 1zm2.7-5.4v5.4q1.2-.1 1.8-.6 1-.8 1-2 0-1.1-.8-1.9-.8-.8-2-.8zm-6.6 8.8-.2 1.6q-.8.1-1.1.6-.5.6-.5 1.7 0 1.1.5 1.8.5.6 1.3.8.5.1 2.1.1-1.3-1.1-1.3-2.7 0-2 1.4-3.1 1.4-1.1 3.5-1.1 1.4 0 2.6.5 1.2.5 1.8 1.5.6 1 .6 2.3 0 1.7-1.4 2.8h1.2v1.5h-8.4q-2.3 0-3.2-.5-.9-.5-1.5-1.5-.5-1-.5-2.5 0-1.7.8-2.8.8-1.1 2.3-1zm5.8 1.4q-1.9 0-2.8.8-.9.8-.9 1.9 0 1.1.9 1.9.9.8 2.7.8 1.8 0 2.7-.8.9-.8.9-1.9 0-1.1-.9-1.9-.9-.8-2.6-.8zm-5 15.7h1.4q-1.6-1.1-1.6-3.1 0-.9.3-1.6.3-.7.8-1.1.5-.4 1.2-.5.5-.1 1.5-.1h6v1.6h-5.4q-1.3 0-1.7.1-.6.2-1 .7-.4.5-.4 1.2 0 .7.4 1.4.4.7 1 .9.7.3 1.9.3h5.2v1.6h-9.7v-1.5zm1.2 10.4q-.8-.9-1.1-1.8-.3-.8-.3-1.8 0-1.6.8-2.5.8-.9 2-.9.7 0 1.3.3.6.3.9.8.4.5.5 1.2.1.5.3 1.5.2 2 .6 2.9.3 0 .4 0 1 0 1.4-.5.5-.6.5-1.9 0-1.2-.4-1.7-.4-.5-1.4-.8l.2-1.6q1 .2 1.6.7.6.5 1 1.5.3 1 .3 2.2 0 1.3-.3 2-.3.8-.7 1.1-.4.4-1.1.5-.4.1-1.5.1h-2.2q-2.3 0-2.9.1-.6.1-1.2.4v-1.7q.5-.3 1.2-.3zm3.7-.1q-.4-.9-.6-2.7-.1-1-.3-1.4-.2-.4-.5-.7-.3-.2-.8-.2-.7 0-1.1.5-.4.5-.4 1.5 0 .9.4 1.7.4.8 1.1 1.1.6.3 1.6.3h.6zm-4.9 4.2h9.7v1.5h-1.5q1 .6 1.4 1 .3.5.3 1.1 0 .8-.5 1.7l-1.5-.6q.4-.6.4-1.2 0-.5-.3-1-.3-.4-.9-.6-.9-.3-1.9-.3h-5.1v-1.6zm0 12.5h1.2q-1.4-.9-1.4-2.7 0-1.2.6-2.1.6-1 1.8-1.5 1.1-.5 2.6-.5 1.5 0 2.6.5 1.2.5 1.8 1.4.6 1 .6 2.2 0 .9-.4 1.5-.4.7-1 1.1h4.8v1.6h-13.4v-1.5zm4.8-5.2q-1.9 0-2.8.8-.9.8-.9 1.8 0 1.1.9 1.8.9.8 2.7.8 2 0 2.9-.8.9-.8.9-1.9 0-1.1-.9-1.8-.9-.7-2.8-.7zm-8.5 14.5h13.4v1.5h-1.3q.7.5 1.1 1.2.4.7.4 1.6 0 1.2-.6 2.2-.6 1-1.8 1.4-1.2.5-2.5.5-1.5 0-2.7-.5-1.2-.5-1.8-1.5-.6-1-.6-2.1 0-.8.3-1.5.3-.7.9-1.1h-4.7v-1.6zm8.5 1.5q-1.9 0-2.8.8-.9.8-.9 1.8 0 1.1.9 1.9.9.8 2.9.8 1.8 0 2.8-.8.9-.8.9-1.8 0-1-1-1.9-1-.8-2.8-.8zm-1.7 15.5-.2 1.7q-1.5-.4-2.3-1.5-.8-1.1-.8-2.8 0-2.1 1.3-3.4 1.3-1.2 3.7-1.2 2.5 0 3.8 1.3 1.3 1.3 1.3 3.3 0 1.9-1.3 3.2-1.3 1.2-3.7 1.2-.2 0-.4 0v-7.2q-1.6.1-2.5.9-.8.8-.8 2 0 .9.5 1.5.5.6 1.5 1zm2.7-5.4v5.4q1.2-.1 1.8-.6 1-.8 1-2 0-1.1-.8-1.9-.8-.8-2-.8zm-2.7 15.8-.2 1.7q-1.5-.4-2.3-1.5-.8-1.1-.8-2.8 0-2.1 1.3-3.4 1.3-1.2 3.7-1.2 2.5 0 3.8 1.3 1.3 1.3 1.3 3.3 0 1.9-1.3 3.2-1.3 1.2-3.7 1.2-.2 0-.4 0v-7.2q-1.6.1-2.5.9-.8.8-.8 2 0 .9.5 1.5.5.6 1.5 1zm2.7-5.4v5.4q1.2-.1 1.8-.6 1-.8 1-2 0-1.1-.8-1.9-.8-.8-2-.8zm-5.8 9.1h9.7v1.5h-1.5q1 .6 1.4 1 .3.5.3 1.1 0 .8-.5 1.7l-1.5-.6q.4-.6.4-1.2 0-.5-.3-1-.3-.4-.9-.6-.9-.3-1.9-.3h-5.1v-1.6z" fill="#38761d"/><path d="m297.9 360h232v38.8h-232z" fill="#fff" fill-opacity=".6" fill-rule="evenodd"/><path d="m352.4 384.4v-11.5h4.3q1.1 0 1.7.1.8.1 1.4.5.6.4.9 1.1.4.7.4 1.6 0 1.5-.9 2.5-.9 1-3.4 1h-2.9v4.7zm1.5-6h3q1.5 0 2.1-.5.6-.5.6-1.5 0-.7-.4-1.2-.4-.5-1-.7-.4-.1-1.4-.1h-2.9v4.1zm9 6v-11.5h1.4v11.5zm9-1q-.8.7-1.5 1-.7.3-1.5.3-1.4 0-2.1-.7-.7-.7-.7-1.7 0-.6.3-1.1.3-.5.7-.8.5-.3 1-.5.4-.1 1.3-.2 1.7-.2 2.5-.5 0-.3 0-.4 0-.9-.4-1.2-.5-.5-1.6-.5-1 0-1.5.4-.5.3-.7 1.2l-1.4-.2q.2-.9.6-1.4.4-.5 1.3-.8.8-.3 1.9-.3 1.1 0 1.7.3.7.3 1 .6.3.4.4 1 .1.4.1 1.3v1.9q0 2 .1 2.5.1.5.4 1h-1.5q-.2-.4-.3-1zm-.1-3.1q-.8.3-2.3.5-.9.1-1.2.3-.4.2-.6.5-.2.3-.2.7 0 .6.4.9.4.4 1.3.4.8 0 1.4-.3.6-.4.9-1 .2-.5.2-1.4v-.5zm3.6-5.7v-1.6h1.4v1.6zm0 9.8v-8.3h1.4v8.3zm3.6 0v-8.3h1.3v1.2q.9-1.4 2.6-1.4.8 0 1.4.3.6.3.9.7.3.4.4 1 .1.4.1 1.4v5.1h-1.4v-5q0-.9-.2-1.3-.2-.4-.6-.7-.4-.3-1-.3-.9 0-1.6.6-.6.6-.6 2.2v4.5h-1.4zm18.8-3 1.4.2q-.2 1.4-1.2 2.2-.9.8-2.3.8-1.7 0-2.8-1.1-1-1.1-1-3.2 0-1.3.4-2.3.5-1 1.4-1.5.9-.5 2-.5 1.4 0 2.2.7.9.7 1.1 1.9l-1.4.2q-.2-.8-.7-1.3-.5-.4-1.2-.4-1.1 0-1.7.8-.7.8-.7 2.4 0 1.7.6 2.4.6.8 1.7.8.8 0 1.4-.5.6-.5.7-1.6zm2.1-1.1q0-2.3 1.3-3.4 1.1-.9 2.6-.9 1.7 0 2.8 1.1 1.1 1.1 1.1 3.1 0 1.6-.5 2.5-.5.9-1.4 1.4-.9.5-2 .5-1.7 0-2.8-1.1-1.1-1.1-1.1-3.2zm1.5 0q0 1.6.7 2.4.7.8 1.8.8 1 0 1.7-.8.7-.8.7-2.4 0-1.5-.7-2.3-.7-.8-1.7-.8-1 0-1.8.8-.7.8-.7 2.4zm8 4.2v-8.3h1.3v1.2q.9-1.4 2.6-1.4.8 0 1.4.3.6.3.9.7.3.4.4 1 .1.4.1 1.4v5.1h-1.4v-5q0-.9-.2-1.3-.2-.4-.6-.7-.4-.3-1-.3-.9 0-1.6.6-.6.6-.6 2.2v4.5h-1.4zm8.9 0v-8.3h1.3v1.2q.9-1.4 2.6-1.4.8 0 1.4.3.6.3.9.7.3.4.4 1 .1.4.1 1.4v5.1h-1.4v-5q0-.9-.2-1.3-.2-.4-.6-.7-.4-.3-1-.3-.9 0-1.6.6-.6.6-.6 2.2v4.5h-1.4zm14.6-2.7 1.5.2q-.3 1.3-1.3 2-.9.7-2.4.7-1.8 0-2.9-1.1-1.1-1.1-1.1-3.1 0-2.1 1.1-3.3 1.1-1.2 2.8-1.2 1.7 0 2.7 1.1 1.1 1.1 1.1 3.2 0 .1 0 .4h-6.2q.1 1.4.8 2.1.7.7 1.7.7.8 0 1.3-.4.5-.4.9-1.3zm-4.6-2.3h4.6q-.1-1-.5-1.6-.7-.8-1.7-.8-1 0-1.6.7-.7.6-.7 1.7zm13.2 1.9 1.4.2q-.2 1.4-1.2 2.2-.9.8-2.3.8-1.7 0-2.8-1.1-1-1.1-1-3.2 0-1.3.4-2.3.5-1 1.4-1.5.9-.5 2-.5 1.4 0 2.2.7.9.7 1.1 1.9l-1.4.2q-.2-.8-.7-1.3-.5-.4-1.2-.4-1.1 0-1.7.8-.7.8-.7 2.4 0 1.7.6 2.4.6.8 1.7.8.8 0 1.4-.5.6-.5.7-1.6zm5.7 1.8.2 1.3q-.6.1-1.1.1-.8 0-1.2-.2-.4-.3-.6-.6-.2-.4-.2-1.7v-4.8h-1v-1.1h1v-2.1l1.4-.8v2.9h1.4v1.1h-1.4v4.8q0 .6.1.8.1.2.3.3.2.1.5.1.2 0 .6-.1zm1.4-8.6v-1.6h1.4v1.6zm0 9.8v-8.3h1.4v8.3zm3-4.2q0-2.3 1.3-3.4 1.1-.9 2.6-.9 1.7 0 2.8 1.1 1.1 1.1 1.1 3.1 0 1.6-.5 2.5-.5.9-1.4 1.4-.9.5-2 .5-1.7 0-2.8-1.1-1.1-1.1-1.1-3.2zm1.5 0q0 1.6.7 2.4.7.8 1.8.8 1 0 1.7-.8.7-.8.7-2.4 0-1.5-.7-2.3-.7-.8-1.7-.8-1 0-1.8.8-.7.8-.7 2.4zm8 4.2v-8.3h1.3v1.2q.9-1.4 2.6-1.4.8 0 1.4.3.6.3.9.7.3.4.4 1 .1.4.1 1.4v5.1h-1.4v-5q0-.9-.2-1.3-.2-.4-.6-.7-.4-.3-1-.3-.9 0-1.6.6-.6.6-.6 2.2v4.5h-1.4zm8.3-2.5 1.4-.2q.1.8.6 1.3.5.4 1.5.4 1 0 1.4-.4.5-.4.5-.9 0-.5-.4-.8-.3-.2-1.4-.5-1.5-.4-2.2-.7-.6-.3-.9-.8-.3-.5-.3-1.1 0-.6.3-1 .3-.5.7-.8.3-.3.9-.4.6-.2 1.2-.2 1 0 1.7.3.7.3 1.1.8.4.5.5 1.3l-1.4.2q-.1-.6-.5-1-.5-.4-1.3-.4-1 0-1.4.3-.4.3-.4.7 0 .3.2.5.2.2.5.4.2.1 1.3.4 1.5.4 2.1.7.6.3.9.7.3.5.3 1.2 0 .7-.4 1.3-.4.6-1.2 1-.8.3-1.7.3-1.6 0-2.5-.7-.8-.7-1.1-2z" fill="#00f"/><path d="m140.5 283.8v103h-51.7v-103z" fill="#fff" fill-opacity=".6" fill-rule="evenodd"/><path d="m118.7 293.8h9.5v6.9h-1.1v-5.6h-2.9v5.3h-1.1v-5.3h-3.3v5.9h-1.1v-7.1zm0 8.7h6.9v1.1h-1q1.1.8 1.1 2.2 0 .6-.2 1.2-.2.5-.6.8-.4.3-.9.4-.3.1-1.1.1h-4.3v-1.2h4.2q.7 0 1.1-.1.4-.1.6-.5.2-.3.2-.8 0-.8-.5-1.3-.5-.5-1.8-.5h-3.8v-1.2zm2.5 11.9-.2 1.2q-1.2-.2-1.9-1-.7-.8-.7-1.9 0-1.4.9-2.3.9-.9 2.7-.9 1.1 0 2 .4.8.4 1.3 1.1.4.8.4 1.7 0 1.1-.6 1.8-.6.7-1.6.9l-.2-1.1q.7-.2 1-.6.4-.4.4-1 0-.9-.6-1.5-.6-.5-2-.5-1.4 0-2 .5-.6.5-.6 1.4 0 .7.4 1.1.4.5 1.3.6zm-1.7 6.7q-.6-.7-.8-1.3-.2-.6-.2-1.3 0-1.1.5-1.8.6-.6 1.4-.6.5 0 .9.2.4.2.7.6.3.4.4.8.1.3.2 1 .2 1.4.4 2.1.2 0 .3 0 .7 0 1-.3.4-.5.4-1.3 0-.8-.3-1.2-.3-.4-1-.6l.2-1.1q.7.2 1.2.5.5.4.7 1 .3.7.3 1.6 0 .9-.2 1.4-.2.6-.5.8-.3.3-.8.4-.3 0-1.1 0h-1.6q-1.6 0-2.1.1-.4.1-.8.3v-1.2q.4-.2.9-.2zm2.6-.1q-.3-.6-.4-1.9-.1-.7-.3-1-.1-.3-.4-.5-.3-.2-.5-.2-.5 0-.8.3-.3.4-.3 1 0 .7.3 1.2.3.5.8.8.4.2 1.2.2h.4zm-6.1 3h9.6v1.1h-.9q.5.4.8.8.3.5.3 1.2 0 .9-.5 1.5-.5.7-1.3 1-.8.3-1.8.3-1 0-1.9-.4-.8-.4-1.3-1.1-.5-.7-.5-1.5 0-.6.3-1 .3-.5.6-.8h-3.4v-1.2zm6.1 1.1q-1.3 0-2 .5-.6.5-.6 1.3 0 .8.7 1.3.7.6 2 .6 1.3 0 2-.5.7-.5.7-1.3 0-.8-.7-1.3-.7-.6-2-.6zm-1.4 5.9.2 1.2q-.7.1-1.1.5-.4.5-.4 1.3 0 .8.3 1.2.3.4.8.4.4 0 .6-.4.2-.2.4-1.2.3-1.3.6-1.8.3-.5.7-.8.4-.3.9-.3.5 0 .8.2.4.2.7.6.2.3.3.8.1.5.1 1 0 .8-.2 1.4-.2.6-.6.9-.4.3-1.1.4l-.2-1.1q.5-.1.8-.5.3-.4.3-1.1 0-.8-.3-1.2-.3-.3-.6-.3-.2 0-.4.1-.2.2-.3.5-.1.2-.3 1-.3 1.3-.5 1.7-.2.5-.6.8-.4.3-1 .3-.6 0-1.1-.3-.5-.3-.8-1-.3-.6-.3-1.5 0-1.3.6-2 .6-.7 1.7-.9zm-2.1 11.7h1q-1.2-.8-1.2-2.2 0-.6.2-1.1.2-.5.6-.8.4-.3.9-.4.3-.1 1.1-.1h4.3v1.2h-3.8q-.9 0-1.2.1-.5.1-.7.5-.3.4-.3.9 0 .5.3 1 .3.5.7.7.5.2 1.3.2h3.7v1.2h-6.9v-1zm0 2.9h9.5v1.2h-9.5zm.9 7.5q-.6-.7-.8-1.3-.2-.6-.2-1.3 0-1.1.5-1.8.6-.6 1.4-.6.5 0 .9.2.4.2.7.6.3.4.4.8.1.3.2 1 .2 1.4.4 2.1.2 0 .3 0 .7 0 1-.3.4-.5.4-1.3 0-.8-.3-1.2-.3-.4-1-.6l.2-1.1q.7.2 1.2.5.5.4.7 1 .3.7.3 1.6 0 .9-.2 1.4-.2.6-.5.8-.3.3-.8.4-.3 0-1.1 0h-1.6q-1.6 0-2.1.1-.4.1-.8.3v-1.2q.4-.2.9-.2zm2.6-.1q-.3-.6-.4-1.9-.1-.7-.3-1-.1-.3-.4-.5-.3-.2-.5-.2-.5 0-.8.3-.3.4-.3 1 0 .7.3 1.2.3.5.8.8.4.2 1.2.2h.4zm-2.4 5.6-1 .2q-.1-.5-.1-.9 0-.6.2-1 .2-.3.5-.5.3-.1 1.4-.1h4v-.9h.9v.9h1.7l.7 1.2h-2.4v1.2h-.9v-1.2h-4q-.5 0-.6 0-.1.1-.2.2-.1.1-.1.4 0 .2 0 .5zm1.2 5.9-.1 1.2q-1.1-.3-1.7-1.1-.6-.8-.6-2 0-1.5.9-2.4.9-.9 2.6-.9 1.8 0 2.7.9 1 .9 1 2.3 0 1.4-.9 2.3-.9.9-2.7.9-.1 0-.3 0v-5.2q-1.1.1-1.8.6-.6.6-.6 1.4 0 .7.3 1.1.3.5 1.1.7zm1.9-3.8v3.9q.9-.1 1.3-.4.7-.6.7-1.5 0-.8-.5-1.4-.5-.5-1.4-.6zm-4.1 11h.9q-1-.7-1-1.9 0-.8.5-1.5.5-.7 1.3-1.1.8-.4 1.9-.4 1 0 1.9.3.8.3 1.3 1 .5.7.5 1.5 0 .6-.3 1.1-.3.5-.7.8h3.4v1.2h-9.5v-1.1zm3.5-3.7q-1.3 0-2 .6-.7.6-.7 1.3 0 .8.6 1.3.6.5 1.9.5 1.4 0 2.1-.5.7-.5.7-1.3 0-.8-.6-1.3-.6-.5-2-.5z" fill="#00f"/><path d="m105.2 298.2-.2 1.2q-1.2-.2-1.9-1-.7-.8-.7-1.9 0-1.4.9-2.3.9-.9 2.7-.9 1.1 0 2 .4.8.4 1.3 1.1.4.8.4 1.7 0 1.1-.6 1.8-.6.7-1.6.9l-.2-1.1q.7-.2 1-.6.4-.4.4-1 0-.9-.6-1.5-.6-.5-2-.5-1.4 0-2 .5-.6.5-.6 1.4 0 .7.4 1.1.4.5 1.3.6zm.9 1.7q1.9 0 2.8 1.1.8.9.8 2.2 0 1.4-.9 2.3-.9.9-2.6.9-1.3 0-2.1-.4-.8-.4-1.2-1.2-.4-.8-.4-1.7 0-1.5.9-2.4.9-.9 2.7-.9zm0 1.2q-1.3 0-2 .6-.7.6-.7 1.5 0 .9.7 1.5.7.6 2 .6 1.3 0 1.9-.6.7-.6.7-1.4 0-.9-.7-1.5-.7-.6-2-.6zm-3.5 6.6h6.9v1.1h-1q1.1.8 1.1 2.2 0 .6-.2 1.2-.2.5-.6.8-.4.3-.9.4-.3.1-1.1.1h-4.3v-1.2h4.2q.7 0 1.1-.1.4-.1.6-.5.2-.3.2-.8 0-.8-.5-1.3-.5-.5-1.8-.5h-3.8v-1.2zm0 7.4h6.9v1.1h-1q1.1.8 1.1 2.2 0 .6-.2 1.2-.2.5-.6.8-.4.3-.9.4-.3.1-1.1.1h-4.3v-1.2h4.2q.7 0 1.1-.1.4-.1.6-.5.2-.3.2-.8 0-.8-.5-1.3-.5-.5-1.8-.5h-3.8v-1.2zm2.2 12.1-.1 1.2q-1.1-.3-1.7-1.1-.6-.8-.6-2 0-1.5.9-2.4.9-.9 2.6-.9 1.8 0 2.7.9 1 .9 1 2.3 0 1.4-.9 2.3-.9.9-2.7.9-.1 0-.3 0v-5.2q-1.1.1-1.8.6-.6.6-.6 1.4 0 .7.3 1.1.3.5 1.1.7zm1.9-3.8v3.9q.9-.1 1.3-.4.7-.6.7-1.5 0-.8-.5-1.4-.5-.5-1.4-.6zm-1.6 11-.2 1.2q-1.2-.2-1.9-1-.7-.8-.7-1.9 0-1.4.9-2.3.9-.9 2.7-.9 1.1 0 2 .4.8.4 1.3 1.1.4.8.4 1.7 0 1.1-.6 1.8-.6.7-1.6.9l-.2-1.1q.7-.2 1-.6.4-.4.4-1 0-.9-.6-1.5-.6-.5-2-.5-1.4 0-2 .5-.6.5-.6 1.4 0 .7.4 1.1.4.5 1.3.6zm-1.5 4.7-1 .2q-.1-.5-.1-.9 0-.6.2-1 .2-.3.5-.5.3-.1 1.4-.1h4v-.9h.9v.9h1.7l.7 1.2h-2.4v1.2h-.9v-1.2h-4q-.5 0-.6 0-.1.1-.2.2-.1.1-.1.4 0 .2 0 .5zm7.1 1.2h1.4v1.2h-1.4zm-8.2 0h6.9v1.2h-6.9zm3.5 2.5q1.9 0 2.8 1.1.8.9.8 2.2 0 1.4-.9 2.3-.9.9-2.6.9-1.3 0-2.1-.4-.8-.4-1.2-1.2-.4-.8-.4-1.7 0-1.5.9-2.4.9-.9 2.7-.9zm0 1.2q-1.3 0-2 .6-.7.6-.7 1.5 0 .9.7 1.5.7.6 2 .6 1.3 0 1.9-.6.7-.6.7-1.4 0-.9-.7-1.5-.7-.6-2-.6zm-3.5 6.6h6.9v1.1h-1q1.1.8 1.1 2.2 0 .6-.2 1.2-.2.5-.6.8-.4.3-.9.4-.3.1-1.1.1h-4.3v-1.2h4.2q.7 0 1.1-.1.4-.1.6-.5.2-.3.2-.8 0-.8-.5-1.3-.5-.5-1.8-.5h-3.8v-1.2zm2.1 6.9.2 1.2q-.7.1-1.1.5-.4.5-.4 1.3 0 .8.3 1.2.3.4.8.4.4 0 .6-.4.2-.2.4-1.2.3-1.3.6-1.8.3-.5.7-.8.4-.3.9-.3.5 0 .8.2.4.2.7.6.2.3.3.8.1.5.1 1 0 .8-.2 1.4-.2.6-.6.9-.4.3-1.1.4l-.2-1.1q.5-.1.8-.5.3-.4.3-1.1 0-.8-.3-1.2-.3-.3-.6-.3-.2 0-.4.1-.2.2-.3.5-.1.2-.3 1-.3 1.3-.5 1.7-.2.5-.6.8-.4.3-1 .3-.6 0-1.1-.3-.5-.3-.8-1-.3-.6-.3-1.5 0-1.3.6-2 .6-.7 1.7-.9z" fill="#00f"/></g></svg>